<svg width="689" height="196" viewBox="0 0 689 196" fill="none" xmlns="http://www.w3.org/2000/svg">
<path d="M166.951 84.7571C166.951 130.833 129.578 168.185 83.4756 168.185C37.3733 168.185 0 130.833 0 84.7571C0 38.6815 37.3733 1.32973 83.4756 1.32973C129.578 1.32973 166.951 38.6815 166.951 84.7571Z" fill="#0075FF"/>
<path d="M73.8544 120.943H113.39C115.859 120.943 117.395 118.299 116.156 116.173L77.7475 50.1581C76.5181 48.043 73.4344 48.043 72.205 50.1581L52.6577 83.7657" fill="white"/>
<path d="M64.6135 120.943H26.3384C23.8694 120.943 22.3327 118.299 23.5723 116.173L42.6996 83.2776C43.929 81.1625 47.0127 81.1625 48.2421 83.2776L67.3796 116.173C68.6192 118.288 67.0723 120.943 64.6135 120.943Z" fill="white"/>
<path d="M123.44 120.943H139.647C142.116 120.943 143.653 118.299 142.413 116.173L117.416 73.1902C116.186 71.0751 113.103 71.0751 111.873 73.1902L103.432 87.701" fill="#FFC300"/>
<path d="M277.936 43.546V52.0496C271.962 45.1744 263.092 41.013 250.963 41.013C227.248 41.013 207.696 61.8196 207.696 88.7777C207.696 115.736 227.248 136.542 250.963 136.542C263.092 136.542 271.962 132.381 277.936 125.506V134.009H305.091V43.546H277.936ZM256.394 110.851C243.903 110.851 234.851 102.347 234.851 88.7777C234.851 75.2082 243.903 66.7047 256.394 66.7047C268.885 66.7047 277.936 75.2082 277.936 88.7777C277.936 102.347 268.885 110.851 256.394 110.851Z" fill="#08173D"/>
<path d="M277.936 43.546V52.0496C271.962 45.1744 263.092 41.013 250.963 41.013C227.248 41.013 207.696 61.8196 207.696 88.7777C207.696 115.736 227.248 136.542 250.963 136.542C263.092 136.542 271.962 132.381 277.936 125.506V134.009H305.091V43.546H277.936ZM256.394 110.851C243.903 110.851 234.851 102.347 234.851 88.7777C234.851 75.2082 243.903 66.7047 256.394 66.7047C268.885 66.7047 277.936 75.2082 277.936 88.7777C277.936 102.347 268.885 110.851 256.394 110.851Z" fill="black" fill-opacity="0.2"/>
<path d="M315.962 134.009H343.116V1.93282H315.962V134.009Z" fill="#08173D"/>
<path d="M315.962 134.009H343.116V1.93282H315.962V134.009Z" fill="black" fill-opacity="0.2"/>
<path d="M408.064 41.013C395.935 41.013 387.065 45.1744 381.091 52.0496V43.546H353.936V170.195H381.091V125.506C387.065 132.381 395.935 136.542 408.064 136.542C431.779 136.542 451.331 115.736 451.331 88.7777C451.331 61.8196 431.779 41.013 408.064 41.013ZM402.633 110.851C390.142 110.851 381.091 102.347 381.091 88.7777C381.091 75.2082 390.142 66.7047 402.633 66.7047C415.124 66.7047 424.176 75.2082 424.176 88.7777C424.176 102.347 415.124 110.851 402.633 110.851Z" fill="#08173D"/>
<path d="M408.064 41.013C395.935 41.013 387.065 45.1744 381.091 52.0496V43.546H353.936V170.195H381.091V125.506C387.065 132.381 395.935 136.542 408.064 136.542C431.779 136.542 451.331 115.736 451.331 88.7777C451.331 61.8196 431.779 41.013 408.064 41.013ZM402.633 110.851C390.142 110.851 381.091 102.347 381.091 88.7777C381.091 75.2082 390.142 66.7047 402.633 66.7047C415.124 66.7047 424.176 75.2082 424.176 88.7777C424.176 102.347 415.124 110.851 402.633 110.851Z" fill="black" fill-opacity="0.2"/>
<path d="M471.253 35.5852C480.123 35.5852 487.546 28.1672 487.546 19.3018C487.546 10.4364 480.123 3.01838 471.253 3.01838C462.382 3.01838 454.96 10.4364 454.96 19.3018C454.96 28.1672 462.382 35.5852 471.253 35.5852ZM457.675 134.009H484.83V43.546H457.675V134.009Z" fill="#08173D"/>
<path d="M471.253 35.5852C480.123 35.5852 487.546 28.1672 487.546 19.3018C487.546 10.4364 480.123 3.01838 471.253 3.01838C462.382 3.01838 454.96 10.4364 454.96 19.3018C454.96 28.1672 462.382 35.5852 471.253 35.5852ZM457.675 134.009H484.83V43.546H457.675V134.009Z" fill="black" fill-opacity="0.2"/>
<path d="M561.364 7.36062V52.0496C555.39 45.1744 546.519 41.013 534.39 41.013C510.675 41.013 491.124 61.8196 491.124 88.7777C491.124 115.736 510.675 136.542 534.39 136.542C546.519 136.542 555.39 132.381 561.364 125.506V134.009H588.519V7.36062H561.364ZM539.821 110.851C527.33 110.851 518.278 102.347 518.278 88.7777C518.278 75.2082 527.33 66.7047 539.821 66.7047C552.312 66.7047 561.364 75.2082 561.364 88.7777C561.364 102.347 552.312 110.851 539.821 110.851Z" fill="#08173D"/>
<path d="M561.364 7.36062V52.0496C555.39 45.1744 546.519 41.013 534.39 41.013C510.675 41.013 491.124 61.8196 491.124 88.7777C491.124 115.736 510.675 136.542 534.39 136.542C546.519 136.542 555.39 132.381 561.364 125.506V134.009H588.519V7.36062H561.364ZM539.821 110.851C527.33 110.851 518.278 102.347 518.278 88.7777C518.278 75.2082 527.33 66.7047 539.821 66.7047C552.312 66.7047 561.364 75.2082 561.364 88.7777C561.364 102.347 552.312 110.851 539.821 110.851Z" fill="black" fill-opacity="0.2"/>
<path d="M623.647 99.6334H687.913C688.638 96.1957 689 92.5772 689 88.7777C689 61.4578 669.448 41.013 643.018 41.013C614.415 41.013 594.863 61.8196 594.863 88.7777C594.863 115.736 614.053 136.542 645.009 136.542C662.207 136.542 675.603 130.21 684.474 117.907L662.75 105.423C659.129 109.403 652.793 112.298 645.371 112.298C635.414 112.298 627.087 109.042 623.647 99.6334ZM623.104 79.3695C625.639 70.1423 632.518 65.0763 642.837 65.0763C650.983 65.0763 659.129 68.8758 662.026 79.3695H623.104Z" fill="#08173D"/>
<path d="M623.647 99.6334H687.913C688.638 96.1957 689 92.5772 689 88.7777C689 61.4578 669.448 41.013 643.018 41.013C614.415 41.013 594.863 61.8196 594.863 88.7777C594.863 115.736 614.053 136.542 645.009 136.542C662.207 136.542 675.603 130.21 684.474 117.907L662.75 105.423C659.129 109.403 652.793 112.298 645.371 112.298C635.414 112.298 627.087 109.042 623.647 99.6334ZM623.104 79.3695C625.639 70.1423 632.518 65.0763 642.837 65.0763C650.983 65.0763 659.129 68.8758 662.026 79.3695H623.104Z" fill="black" fill-opacity="0.2"/>
<path d="M488.899 18.4173C488.899 28.4096 480.794 36.51 470.795 36.51C460.797 36.51 452.692 28.4096 452.692 18.4173C452.692 8.42496 460.797 0.324585 470.795 0.324585C480.794 0.324585 488.899 8.42496 488.899 18.4173Z" fill="#F7AD01"/>
<path d="M575.189 185.714V154.829H587.555C589.827 154.829 591.723 155.166 593.241 155.839C594.759 156.513 595.9 157.448 596.664 158.644C597.428 159.831 597.81 161.198 597.81 162.746C597.81 163.953 597.569 165.013 597.086 165.928C596.604 166.833 595.94 167.577 595.096 168.16C594.261 168.733 593.306 169.141 592.23 169.382V169.683C593.407 169.734 594.507 170.065 595.533 170.679C596.569 171.292 597.408 172.152 598.051 173.258C598.695 174.353 599.017 175.66 599.017 177.179C599.017 178.817 598.609 180.28 597.795 181.567C596.991 182.844 595.799 183.854 594.221 184.598C592.642 185.342 590.697 185.714 588.385 185.714H575.189ZM581.719 180.376H587.042C588.862 180.376 590.189 180.029 591.024 179.335C591.858 178.631 592.276 177.696 592.276 176.53C592.276 175.676 592.069 174.921 591.657 174.268C591.245 173.614 590.657 173.102 589.893 172.73C589.139 172.358 588.239 172.172 587.193 172.172H581.719V180.376ZM581.719 167.753H586.56C587.455 167.753 588.249 167.597 588.943 167.286C589.646 166.964 590.199 166.511 590.602 165.928C591.014 165.345 591.22 164.646 591.22 163.832C591.22 162.716 590.823 161.816 590.028 161.133C589.244 160.449 588.128 160.107 586.681 160.107H581.719V167.753ZM603.266 185.714V154.829H609.796V180.33H623.037V185.714H603.266ZM654.54 170.272C654.54 173.64 653.902 176.505 652.625 178.868C651.358 181.23 649.629 183.035 647.437 184.282C645.256 185.518 642.803 186.137 640.078 186.137C637.333 186.137 634.87 185.513 632.688 184.267C630.507 183.02 628.782 181.215 627.516 178.853C626.249 176.49 625.615 173.63 625.615 170.272C625.615 166.904 626.249 164.038 627.516 161.676C628.782 159.313 630.507 157.513 632.688 156.277C634.87 155.03 637.333 154.407 640.078 154.407C642.803 154.407 645.256 155.03 647.437 156.277C649.629 157.513 651.358 159.313 652.625 161.676C653.902 164.038 654.54 166.904 654.54 170.272ZM647.92 170.272C647.92 168.09 647.593 166.25 646.94 164.752C646.296 163.254 645.386 162.118 644.21 161.344C643.034 160.57 641.656 160.183 640.078 160.183C638.499 160.183 637.122 160.57 635.946 161.344C634.769 162.118 633.855 163.254 633.201 164.752C632.558 166.25 632.236 168.09 632.236 170.272C632.236 172.453 632.558 174.293 633.201 175.791C633.855 177.289 634.769 178.425 635.946 179.199C637.122 179.974 638.499 180.361 640.078 180.361C641.656 180.361 643.034 179.974 644.21 179.199C645.386 178.425 646.296 177.289 646.94 175.791C647.593 174.293 647.92 172.453 647.92 170.272ZM679.857 164.812C679.646 164.078 679.35 163.43 678.968 162.867C678.586 162.294 678.118 161.811 677.565 161.419C677.022 161.017 676.399 160.71 675.695 160.499C675.001 160.288 674.232 160.183 673.388 160.183C671.809 160.183 670.422 160.575 669.225 161.359C668.039 162.143 667.114 163.284 666.451 164.782C665.787 166.27 665.455 168.09 665.455 170.241C665.455 172.393 665.782 174.223 666.435 175.731C667.089 177.239 668.014 178.39 669.21 179.184C670.407 179.969 671.819 180.361 673.448 180.361C674.926 180.361 676.188 180.099 677.233 179.576C678.289 179.044 679.093 178.295 679.646 177.329C680.209 176.364 680.491 175.223 680.491 173.906L681.818 174.102H673.855V169.186H686.779V173.077C686.779 175.791 686.206 178.124 685.06 180.074C683.914 182.014 682.336 183.513 680.325 184.568C678.314 185.614 676.012 186.137 673.418 186.137C670.522 186.137 667.979 185.498 665.787 184.221C663.595 182.934 661.886 181.11 660.659 178.747C659.443 176.374 658.835 173.559 658.835 170.302C658.835 167.798 659.197 165.566 659.921 163.606C660.654 161.635 661.68 159.966 662.997 158.599C664.314 157.232 665.847 156.191 667.597 155.477C669.346 154.763 671.241 154.407 673.282 154.407C675.031 154.407 676.66 154.663 678.168 155.176C679.676 155.678 681.014 156.392 682.18 157.317C683.356 158.242 684.316 159.343 685.06 160.62C685.804 161.887 686.282 163.284 686.493 164.812H679.857Z" fill="#58596C"/>
</svg>
