<svg width="148" height="40" viewBox="0 0 148 40" fill="none" xmlns="http://www.w3.org/2000/svg">
<path d="M35.6553 18.032C35.6553 27.8723 27.6736 35.8494 17.8277 35.8494C7.98172 35.8494 0 27.8723 0 18.032C0 8.19177 7.98172 0.214667 17.8277 0.214667C27.6736 0.214667 35.6553 8.19177 35.6553 18.032Z" fill="#0075FF"/>
<path d="M15.7729 25.76H24.2163C24.7436 25.76 25.0718 25.1954 24.8071 24.7415L16.6043 10.6428C16.3418 10.1911 15.6832 10.1911 15.4206 10.6428L11.246 17.8203" fill="white"/>
<path d="M13.7993 25.76H5.62503C5.09772 25.76 4.76953 25.1954 5.03427 24.7415L9.11923 17.716C9.38179 17.2643 10.0404 17.2643 10.3029 17.716L14.3901 24.7415C14.6548 25.1932 14.3244 25.76 13.7993 25.76Z" fill="white"/>
<path d="M26.3627 25.76H29.8241C30.3514 25.76 30.6796 25.1954 30.4148 24.7415L25.0762 15.5617C24.8136 15.11 24.155 15.11 23.8925 15.5617L22.0896 18.6607" fill="#FFC300"/>
<path d="M59.3581 9.23068V11.0468C58.0823 9.57844 56.1878 8.68972 53.5974 8.68972C48.5327 8.68972 44.3571 13.1333 44.3571 18.8907C44.3571 24.6481 48.5327 29.0917 53.5974 29.0917C56.1878 29.0917 58.0823 28.203 59.3581 26.7346V28.5507H65.1575V9.23068H59.3581ZM54.7573 23.6048C52.0896 23.6048 50.1565 21.7887 50.1565 18.8907C50.1565 15.9927 52.0896 14.1766 54.7573 14.1766C57.425 14.1766 59.3581 15.9927 59.3581 18.8907C59.3581 21.7887 57.425 23.6048 54.7573 23.6048Z" fill="#08173D"/>
<path d="M59.3581 9.23068V11.0468C58.0823 9.57844 56.1878 8.68972 53.5974 8.68972C48.5327 8.68972 44.3571 13.1333 44.3571 18.8907C44.3571 24.6481 48.5327 29.0917 53.5974 29.0917C56.1878 29.0917 58.0823 28.203 59.3581 26.7346V28.5507H65.1575V9.23068H59.3581ZM54.7573 23.6048C52.0896 23.6048 50.1565 21.7887 50.1565 18.8907C50.1565 15.9927 52.0896 14.1766 54.7573 14.1766C57.425 14.1766 59.3581 15.9927 59.3581 18.8907C59.3581 21.7887 57.425 23.6048 54.7573 23.6048Z" fill="black" fill-opacity="0.2"/>
<path d="M67.479 28.5507H73.2784V0.343467H67.479V28.5507Z" fill="#08173D"/>
<path d="M67.479 28.5507H73.2784V0.343467H67.479V28.5507Z" fill="black" fill-opacity="0.2"/>
<path d="M87.1492 8.68972C84.5588 8.68972 82.6643 9.57844 81.3885 11.0468V9.23068H75.5891V36.2787H81.3885V26.7346C82.6643 28.203 84.5588 29.0917 87.1492 29.0917C92.2139 29.0917 96.3895 24.6481 96.3895 18.8907C96.3895 13.1333 92.2139 8.68972 87.1492 8.68972ZM85.9893 23.6048C83.3216 23.6048 81.3885 21.7887 81.3885 18.8907C81.3885 15.9927 83.3216 14.1766 85.9893 14.1766C88.657 14.1766 90.5901 15.9927 90.5901 18.8907C90.5901 21.7887 88.657 23.6048 85.9893 23.6048Z" fill="#08173D"/>
<path d="M87.1492 8.68972C84.5588 8.68972 82.6643 9.57844 81.3885 11.0468V9.23068H75.5891V36.2787H81.3885V26.7346C82.6643 28.203 84.5588 29.0917 87.1492 29.0917C92.2139 29.0917 96.3895 24.6481 96.3895 18.8907C96.3895 13.1333 92.2139 8.68972 87.1492 8.68972ZM85.9893 23.6048C83.3216 23.6048 81.3885 21.7887 81.3885 18.8907C81.3885 15.9927 83.3216 14.1766 85.9893 14.1766C88.657 14.1766 90.5901 15.9927 90.5901 18.8907C90.5901 21.7887 88.657 23.6048 85.9893 23.6048Z" fill="black" fill-opacity="0.2"/>
<path d="M100.644 7.53052C102.539 7.53052 104.124 5.94628 104.124 4.05291C104.124 2.15955 102.539 0.575306 100.644 0.575306C98.7497 0.575306 97.1645 2.15955 97.1645 4.05291C97.1645 5.94628 98.7497 7.53052 100.644 7.53052ZM97.7445 28.5507H103.544V9.23068H97.7445V28.5507Z" fill="#08173D"/>
<path d="M100.644 7.53052C102.539 7.53052 104.124 5.94628 104.124 4.05291C104.124 2.15955 102.539 0.575306 100.644 0.575306C98.7497 0.575306 97.1645 2.15955 97.1645 4.05291C97.1645 5.94628 98.7497 7.53052 100.644 7.53052ZM97.7445 28.5507H103.544V9.23068H97.7445V28.5507Z" fill="black" fill-opacity="0.2"/>
<path d="M119.889 1.50267V11.0468C118.613 9.57844 116.719 8.68972 114.128 8.68972C109.063 8.68972 104.888 13.1333 104.888 18.8907C104.888 24.6481 109.063 29.0917 114.128 29.0917C116.719 29.0917 118.613 28.203 119.889 26.7346V28.5507H125.688V1.50267H119.889ZM115.288 23.6048C112.62 23.6048 110.687 21.7887 110.687 18.8907C110.687 15.9927 112.62 14.1766 115.288 14.1766C117.956 14.1766 119.889 15.9927 119.889 18.8907C119.889 21.7887 117.956 23.6048 115.288 23.6048Z" fill="#08173D"/>
<path d="M119.889 1.50267V11.0468C118.613 9.57844 116.719 8.68972 114.128 8.68972C109.063 8.68972 104.888 13.1333 104.888 18.8907C104.888 24.6481 109.063 29.0917 114.128 29.0917C116.719 29.0917 118.613 28.203 119.889 26.7346V28.5507H125.688V1.50267H119.889ZM115.288 23.6048C112.62 23.6048 110.687 21.7887 110.687 18.8907C110.687 15.9927 112.62 14.1766 115.288 14.1766C117.956 14.1766 119.889 15.9927 119.889 18.8907C119.889 21.7887 117.956 23.6048 115.288 23.6048Z" fill="black" fill-opacity="0.2"/>
<path d="M133.191 21.2091H146.916C147.07 20.4749 147.148 19.7021 147.148 18.8907C147.148 13.056 142.972 8.68972 137.328 8.68972C131.219 8.68972 127.043 13.1333 127.043 18.8907C127.043 24.6481 131.142 29.0917 137.753 29.0917C141.426 29.0917 144.287 27.7393 146.181 25.1117L141.542 22.4456C140.768 23.2957 139.415 23.9139 137.83 23.9139C135.704 23.9139 133.925 23.2184 133.191 21.2091ZM133.075 16.8814C133.616 14.9108 135.085 13.8288 137.289 13.8288C139.029 13.8288 140.768 14.6403 141.387 16.8814H133.075Z" fill="#08173D"/>
<path d="M133.191 21.2091H146.916C147.07 20.4749 147.148 19.7021 147.148 18.8907C147.148 13.056 142.972 8.68972 137.328 8.68972C131.219 8.68972 127.043 13.1333 127.043 18.8907C127.043 24.6481 131.142 29.0917 137.753 29.0917C141.426 29.0917 144.287 27.7393 146.181 25.1117L141.542 22.4456C140.768 23.2957 139.415 23.9139 137.83 23.9139C135.704 23.9139 133.925 23.2184 133.191 21.2091ZM133.075 16.8814C133.616 14.9108 135.085 13.8288 137.289 13.8288C139.029 13.8288 140.768 14.6403 141.387 16.8814H133.075Z" fill="black" fill-opacity="0.2"/>
<path d="M104.413 3.86401C104.413 5.99804 102.682 7.72801 100.546 7.72801C98.4112 7.72801 96.6802 5.99804 96.6802 3.86401C96.6802 1.72997 98.4112 0 100.546 0C102.682 0 104.413 1.72997 104.413 3.86401Z" fill="#F7AD01"/>
<path d="M123.603 39.9066H121.265V33.3105H123.622C124.286 33.3105 124.857 33.4425 125.336 33.7066C125.815 33.9686 126.183 34.3454 126.44 34.8371C126.7 35.3288 126.83 35.9171 126.83 36.6021C126.83 37.2892 126.7 37.8797 126.44 38.3735C126.183 38.8674 125.812 39.2463 125.329 39.5104C124.848 39.7745 124.273 39.9066 123.603 39.9066ZM122.659 38.7117H123.545C123.957 38.7117 124.304 38.6387 124.585 38.4927C124.869 38.3445 125.081 38.1159 125.223 37.8067C125.367 37.4953 125.439 37.0938 125.439 36.6021C125.439 36.1147 125.367 35.7164 125.223 35.4072C125.081 35.098 124.87 34.8704 124.589 34.7244C124.307 34.5784 123.961 34.5054 123.548 34.5054H122.659V38.7117Z" fill="#58596C"/>
<path d="M133.925 36.6085C133.925 37.3278 133.788 37.9398 133.516 38.4444C133.245 38.949 132.876 39.3344 132.408 39.6006C131.942 39.8647 131.418 39.9968 130.836 39.9968C130.25 39.9968 129.724 39.8637 129.258 39.5974C128.792 39.3312 128.424 38.9457 128.153 38.4411C127.883 37.9366 127.747 37.3257 127.747 36.6085C127.747 35.8892 127.883 35.2773 128.153 34.7727C128.424 34.2681 128.792 33.8838 129.258 33.6197C129.724 33.3534 130.25 33.2203 130.836 33.2203C131.418 33.2203 131.942 33.3534 132.408 33.6197C132.876 33.8838 133.245 34.2681 133.516 34.7727C133.788 35.2773 133.925 35.8892 133.925 36.6085ZM132.511 36.6085C132.511 36.1426 132.441 35.7497 132.301 35.4297C132.164 35.1098 131.97 34.8672 131.719 34.7018C131.467 34.5365 131.173 34.4538 130.836 34.4538C130.499 34.4538 130.205 34.5365 129.954 34.7018C129.702 34.8672 129.507 35.1098 129.367 35.4297C129.23 35.7497 129.161 36.1426 129.161 36.6085C129.161 37.0745 129.23 37.4674 129.367 37.7873C129.507 38.1073 129.702 38.3499 129.954 38.5152C130.205 38.6806 130.499 38.7632 130.836 38.7632C131.173 38.7632 131.467 38.6806 131.719 38.5152C131.97 38.3499 132.164 38.1073 132.301 37.7873C132.441 37.4674 132.511 37.0745 132.511 36.6085Z" fill="#58596C"/>
<path d="M140.778 35.6198H139.367C139.341 35.4372 139.289 35.2751 139.209 35.1334C139.13 34.9896 139.028 34.8672 138.903 34.7663C138.779 34.6653 138.635 34.588 138.472 34.5344C138.311 34.4807 138.136 34.4538 137.947 34.4538C137.605 34.4538 137.308 34.5387 137.055 34.7083C136.801 34.8758 136.605 35.1205 136.465 35.4426C136.326 35.7625 136.256 36.1512 136.256 36.6085C136.256 37.0788 136.326 37.4738 136.465 37.7938C136.607 38.1137 136.804 38.3553 137.058 38.5184C137.311 38.6816 137.604 38.7632 137.937 38.7632C138.124 38.7632 138.297 38.7385 138.456 38.6891C138.617 38.6398 138.759 38.5678 138.884 38.4734C139.008 38.3767 139.112 38.2597 139.193 38.1223C139.277 37.9849 139.335 37.8281 139.367 37.6521L140.778 37.6585C140.741 37.9613 140.65 38.2533 140.504 38.5346C140.36 38.8137 140.166 39.0638 139.921 39.285C139.678 39.504 139.389 39.6779 139.051 39.8068C138.716 39.9334 138.337 39.9968 137.914 39.9968C137.326 39.9968 136.8 39.8637 136.336 39.5974C135.875 39.3312 135.51 38.9457 135.241 38.4411C134.975 37.9366 134.842 37.3257 134.842 36.6085C134.842 35.8892 134.977 35.2773 135.248 34.7727C135.518 34.2681 135.885 33.8838 136.349 33.6197C136.813 33.3534 137.335 33.2203 137.914 33.2203C138.297 33.2203 138.651 33.274 138.977 33.3813C139.306 33.4887 139.597 33.6454 139.85 33.8516C140.104 34.0555 140.31 34.3057 140.469 34.602C140.63 34.8983 140.733 35.2376 140.778 35.6198Z" fill="#58596C"/>
<path d="M145.356 35.2075C145.33 34.9477 145.22 34.7459 145.024 34.602C144.829 34.4581 144.564 34.3862 144.229 34.3862C144.001 34.3862 143.809 34.4184 143.652 34.4828C143.496 34.5451 143.375 34.6321 143.292 34.7437C143.21 34.8554 143.169 34.982 143.169 35.1238C143.165 35.2419 143.19 35.3449 143.243 35.433C143.299 35.521 143.375 35.5972 143.472 35.6616C143.569 35.7239 143.68 35.7786 143.807 35.8259C143.934 35.871 144.069 35.9096 144.213 35.9418L144.805 36.0835C145.093 36.148 145.357 36.2339 145.598 36.3412C145.838 36.4486 146.046 36.5806 146.222 36.7374C146.399 36.8941 146.535 37.0788 146.631 37.2913C146.73 37.5039 146.781 37.7476 146.783 38.0225C146.781 38.4261 146.678 38.7761 146.474 39.0724C146.272 39.3666 145.98 39.5953 145.598 39.7584C145.218 39.9195 144.759 40 144.222 40C143.69 40 143.226 39.9184 142.831 39.7552C142.438 39.592 142.131 39.3505 141.91 39.0306C141.691 38.7085 141.576 38.3102 141.565 37.8356H142.915C142.93 38.0568 142.993 38.2415 143.105 38.3896C143.219 38.5356 143.37 38.6462 143.559 38.7214C143.75 38.7944 143.966 38.8309 144.206 38.8309C144.442 38.8309 144.647 38.7965 144.821 38.7278C144.997 38.6591 145.134 38.5635 145.23 38.4411C145.327 38.3188 145.375 38.1781 145.375 38.0192C145.375 37.8711 145.331 37.7465 145.243 37.6456C145.157 37.5447 145.031 37.4588 144.863 37.388C144.698 37.3171 144.495 37.2527 144.255 37.1947L143.536 37.0144C142.98 36.8791 142.541 36.6676 142.219 36.3799C141.897 36.0921 141.737 35.7046 141.739 35.2172C141.737 34.8178 141.843 34.4689 142.058 34.1704C142.275 33.872 142.572 33.639 142.95 33.4715C143.328 33.304 143.757 33.2203 144.238 33.2203C144.728 33.2203 145.155 33.304 145.52 33.4715C145.887 33.639 146.173 33.872 146.377 34.1704C146.581 34.4689 146.686 34.8146 146.693 35.2075H145.356Z" fill="#58596C"/>
</svg>
