<svg width="163" height="46" viewBox="0 0 163 46" fill="none" xmlns="http://www.w3.org/2000/svg">
<path d="M39.3127 19.8817C39.3127 30.7313 30.5122 39.5266 19.6563 39.5266C8.80044 39.5266 0 30.7313 0 19.8817C0 9.03204 8.80044 0.236686 19.6563 0.236686C30.5122 0.236686 39.3127 9.03204 39.3127 19.8817Z" fill="#0075FF"/>
<path d="M17.3908 28.4024H26.7003C27.2817 28.4024 27.6435 27.7798 27.3516 27.2794L18.3075 11.7345C18.018 11.2364 17.2919 11.2364 17.0024 11.7345L12.3995 19.6482" fill="white"/>
<path d="M15.2148 28.4024H6.20201C5.62062 28.4024 5.25876 27.7798 5.55066 27.2794L10.0546 19.5333C10.3441 19.0352 11.0703 19.0352 11.3597 19.5333L15.8661 27.2794C16.158 27.7774 15.7938 28.4024 15.2148 28.4024Z" fill="white"/>
<path d="M29.0669 28.4024H32.8833C33.4647 28.4024 33.8265 27.7798 33.5346 27.2794L27.6484 17.158C27.3589 16.6599 26.6327 16.6599 26.3432 17.158L24.3554 20.5749" fill="#FFC300"/>
<path d="M65.4468 10.1775V12.1799C64.04 10.5609 61.9512 9.58107 59.0952 9.58107C53.5109 9.58107 48.907 14.4805 48.907 20.8284C48.907 27.1763 53.5109 32.0757 59.0952 32.0757C61.9512 32.0757 64.04 31.0959 65.4468 29.4769V31.4793H71.841V10.1775H65.4468ZM60.374 26.026C57.4327 26.026 55.3013 24.0237 55.3013 20.8284C55.3013 17.6331 57.4327 15.6308 60.374 15.6308C63.3154 15.6308 65.4468 17.6331 65.4468 20.8284C65.4468 24.0237 63.3154 26.026 60.374 26.026Z" fill="#08173D"/>
<path d="M65.4468 10.1775V12.1799C64.04 10.5609 61.9512 9.58107 59.0952 9.58107C53.5109 9.58107 48.907 14.4805 48.907 20.8284C48.907 27.1763 53.5109 32.0757 59.0952 32.0757C61.9512 32.0757 64.04 31.0959 65.4468 29.4769V31.4793H71.841V10.1775H65.4468ZM60.374 26.026C57.4327 26.026 55.3013 24.0237 55.3013 20.8284C55.3013 17.6331 57.4327 15.6308 60.374 15.6308C63.3154 15.6308 65.4468 17.6331 65.4468 20.8284C65.4468 24.0237 63.3154 26.026 60.374 26.026Z" fill="black" fill-opacity="0.2"/>
<path d="M74.4007 31.4793H80.7949V0.378697H74.4007V31.4793Z" fill="#08173D"/>
<path d="M74.4007 31.4793H80.7949V0.378697H74.4007V31.4793Z" fill="black" fill-opacity="0.2"/>
<path d="M96.0884 9.58107C93.2323 9.58107 91.1436 10.5609 89.7368 12.1799V10.1775H83.3426V40H89.7368V29.4769C91.1436 31.0959 93.2323 32.0757 96.0884 32.0757C101.673 32.0757 106.277 27.1763 106.277 20.8284C106.277 14.4805 101.673 9.58107 96.0884 9.58107ZM94.8096 26.026C91.8682 26.026 89.7368 24.0237 89.7368 20.8284C89.7368 17.6331 91.8682 15.6308 94.8096 15.6308C97.7509 15.6308 99.8823 17.6331 99.8823 20.8284C99.8823 24.0237 97.7509 26.026 94.8096 26.026Z" fill="#08173D"/>
<path d="M96.0884 9.58107C93.2323 9.58107 91.1436 10.5609 89.7368 12.1799V10.1775H83.3426V40H89.7368V29.4769C91.1436 31.0959 93.2323 32.0757 96.0884 32.0757C101.673 32.0757 106.277 27.1763 106.277 20.8284C106.277 14.4805 101.673 9.58107 96.0884 9.58107ZM94.8096 26.026C91.8682 26.026 89.7368 24.0237 89.7368 20.8284C89.7368 17.6331 91.8682 15.6308 94.8096 15.6308C97.7509 15.6308 99.8823 17.6331 99.8823 20.8284C99.8823 24.0237 97.7509 26.026 94.8096 26.026Z" fill="black" fill-opacity="0.2"/>
<path d="M110.968 8.30296C113.056 8.30296 114.804 6.55621 114.804 4.46864C114.804 2.38106 113.056 0.634318 110.968 0.634318C108.879 0.634318 107.131 2.38106 107.131 4.46864C107.131 6.55621 108.879 8.30296 110.968 8.30296ZM107.771 31.4793H114.165V10.1775H107.771V31.4793Z" fill="#08173D"/>
<path d="M110.968 8.30296C113.056 8.30296 114.804 6.55621 114.804 4.46864C114.804 2.38106 113.056 0.634318 110.968 0.634318C108.879 0.634318 107.131 2.38106 107.131 4.46864C107.131 6.55621 108.879 8.30296 110.968 8.30296ZM107.771 31.4793H114.165V10.1775H107.771V31.4793Z" fill="black" fill-opacity="0.2"/>
<path d="M132.187 1.6568V12.1799C130.78 10.5609 128.691 9.58107 125.835 9.58107C120.251 9.58107 115.647 14.4805 115.647 20.8284C115.647 27.1763 120.251 32.0757 125.835 32.0757C128.691 32.0757 130.78 31.0959 132.187 29.4769V31.4793H138.581V1.6568H132.187ZM127.114 26.026C124.172 26.026 122.041 24.0237 122.041 20.8284C122.041 17.6331 124.172 15.6308 127.114 15.6308C130.055 15.6308 132.187 17.6331 132.187 20.8284C132.187 24.0237 130.055 26.026 127.114 26.026Z" fill="#08173D"/>
<path d="M132.187 1.6568V12.1799C130.78 10.5609 128.691 9.58107 125.835 9.58107C120.251 9.58107 115.647 14.4805 115.647 20.8284C115.647 27.1763 120.251 32.0757 125.835 32.0757C128.691 32.0757 130.78 31.0959 132.187 29.4769V31.4793H138.581V1.6568H132.187ZM127.114 26.026C124.172 26.026 122.041 24.0237 122.041 20.8284C122.041 17.6331 124.172 15.6308 127.114 15.6308C130.055 15.6308 132.187 17.6331 132.187 20.8284C132.187 24.0237 130.055 26.026 127.114 26.026Z" fill="black" fill-opacity="0.2"/>
<path d="M146.853 23.3846H161.986C162.156 22.5751 162.241 21.7231 162.241 20.8284C162.241 14.3953 157.638 9.58107 151.414 9.58107C144.679 9.58107 140.075 14.4805 140.075 20.8284C140.075 27.1763 144.593 32.0757 151.883 32.0757C155.932 32.0757 159.087 30.5846 161.176 27.6876L156.06 24.7479C155.208 25.6852 153.716 26.3669 151.968 26.3669C149.623 26.3669 147.663 25.6 146.853 23.3846ZM146.725 18.613C147.322 16.4402 148.941 15.2473 151.371 15.2473C153.289 15.2473 155.208 16.142 155.89 18.613H146.725Z" fill="#08173D"/>
<path d="M146.853 23.3846H161.986C162.156 22.5751 162.241 21.7231 162.241 20.8284C162.241 14.3953 157.638 9.58107 151.414 9.58107C144.679 9.58107 140.075 14.4805 140.075 20.8284C140.075 27.1763 144.593 32.0757 151.883 32.0757C155.932 32.0757 159.087 30.5846 161.176 27.6876L156.06 24.7479C155.208 25.6852 153.716 26.3669 151.968 26.3669C149.623 26.3669 147.663 25.6 146.853 23.3846ZM146.725 18.613C147.322 16.4402 148.941 15.2473 151.371 15.2473C153.289 15.2473 155.208 16.142 155.89 18.613H146.725Z" fill="black" fill-opacity="0.2"/>
<path d="M115.123 4.26035C115.123 6.61328 113.214 8.52071 110.86 8.52071C108.506 8.52071 106.597 6.61328 106.597 4.26035C106.597 1.90743 108.506 0 110.86 0C113.214 0 115.123 1.90743 115.123 4.26035Z" fill="#F7AD01"/>
<path d="M135.442 44V36.7273H138.354C138.889 36.7273 139.335 36.8066 139.692 36.9652C140.05 37.1238 140.319 37.344 140.498 37.6257C140.678 37.9051 140.768 38.227 140.768 38.5916C140.768 38.8757 140.712 39.1255 140.598 39.3409C140.484 39.554 140.328 39.7292 140.129 39.8665C139.933 40.0014 139.708 40.0973 139.454 40.1541V40.2251C139.731 40.237 139.991 40.3151 140.232 40.4595C140.476 40.6039 140.674 40.8063 140.825 41.0668C140.977 41.3248 141.052 41.6326 141.052 41.9901C141.052 42.3759 140.957 42.7204 140.765 43.0234C140.575 43.3241 140.295 43.562 139.923 43.7372C139.552 43.9124 139.093 44 138.549 44H135.442ZM136.979 42.7429H138.233C138.661 42.7429 138.974 42.6612 139.17 42.4979C139.367 42.3321 139.465 42.112 139.465 41.8374C139.465 41.6361 139.417 41.4586 139.32 41.3047C139.222 41.1508 139.084 41.0301 138.904 40.9425C138.726 40.8549 138.515 40.8111 138.268 40.8111H136.979V42.7429ZM136.979 39.7706H138.119C138.33 39.7706 138.517 39.7339 138.68 39.6605C138.846 39.5848 138.976 39.4782 139.071 39.3409C139.168 39.2036 139.217 39.0391 139.217 38.8473C139.217 38.5845 139.123 38.3726 138.936 38.2116C138.751 38.0507 138.489 37.9702 138.148 37.9702H136.979V39.7706ZM142.053 44V36.7273H143.591V42.7322H146.709V44H142.053ZM154.127 40.3636C154.127 41.1567 153.977 41.8314 153.676 42.3878C153.378 42.9441 152.97 43.3691 152.454 43.6626C151.941 43.9538 151.363 44.0994 150.721 44.0994C150.075 44.0994 149.495 43.9527 148.981 43.6591C148.468 43.3655 148.062 42.9406 147.763 42.3842C147.465 41.8279 147.316 41.1544 147.316 40.3636C147.316 39.5705 147.465 38.8958 147.763 38.3395C148.062 37.7831 148.468 37.3594 148.981 37.0682C149.495 36.7746 150.075 36.6278 150.721 36.6278C151.363 36.6278 151.941 36.7746 152.454 37.0682C152.97 37.3594 153.378 37.7831 153.676 38.3395C153.977 38.8958 154.127 39.5705 154.127 40.3636ZM152.568 40.3636C152.568 39.8499 152.491 39.4167 152.337 39.0639C152.186 38.7112 151.971 38.4437 151.694 38.2614C151.417 38.0791 151.093 37.9879 150.721 37.9879C150.35 37.9879 150.025 38.0791 149.748 38.2614C149.471 38.4437 149.256 38.7112 149.102 39.0639C148.95 39.4167 148.875 39.8499 148.875 40.3636C148.875 40.8774 148.95 41.3106 149.102 41.6634C149.256 42.0161 149.471 42.2836 149.748 42.4659C150.025 42.6482 150.35 42.7393 150.721 42.7393C151.093 42.7393 151.417 42.6482 151.694 42.4659C151.971 42.2836 152.186 42.0161 152.337 41.6634C152.491 41.3106 152.568 40.8774 152.568 40.3636ZM160.088 39.0781C160.039 38.9053 159.969 38.7526 159.879 38.62C159.789 38.4851 159.679 38.3714 159.549 38.2791C159.421 38.1844 159.274 38.1122 159.108 38.0625C158.945 38.0128 158.764 37.9879 158.565 37.9879C158.193 37.9879 157.867 38.0803 157.585 38.2649C157.305 38.4496 157.088 38.7183 156.931 39.071C156.775 39.4214 156.697 39.8499 156.697 40.3565C156.697 40.8632 156.774 41.294 156.928 41.6491C157.082 42.0043 157.3 42.2753 157.581 42.4624C157.863 42.647 158.196 42.7393 158.579 42.7393C158.927 42.7393 159.224 42.6778 159.47 42.5547C159.719 42.4292 159.908 42.2528 160.039 42.0256C160.171 41.7983 160.237 41.5296 160.237 41.2195L160.55 41.2656H158.675V40.108H161.718V41.0241C161.718 41.6634 161.583 42.2126 161.313 42.6719C161.044 43.1288 160.672 43.4815 160.198 43.7301C159.725 43.9763 159.183 44.0994 158.572 44.0994C157.89 44.0994 157.291 43.9491 156.775 43.6484C156.259 43.3454 155.857 42.9157 155.568 42.3594C155.281 41.8007 155.138 41.1378 155.138 40.3707C155.138 39.7812 155.223 39.2557 155.394 38.794C155.567 38.33 155.808 37.937 156.118 37.6151C156.428 37.2931 156.789 37.0481 157.201 36.88C157.613 36.7119 158.059 36.6278 158.54 36.6278C158.952 36.6278 159.335 36.6882 159.691 36.8089C160.046 36.9273 160.361 37.0954 160.635 37.3132C160.912 37.531 161.138 37.7902 161.313 38.0909C161.489 38.3892 161.601 38.7183 161.651 39.0781H160.088Z" fill="#58596C"/>
</svg>
